%TF.GenerationSoftware,KiCad,Pcbnew,7.0.8*%
%TF.CreationDate,2023-12-05T04:00:53-05:00*%
%TF.ProjectId,4900_keeb_for_me,34393030-5f6b-4656-9562-5f666f725f6d,rev?*%
%TF.SameCoordinates,Original*%
%TF.FileFunction,Soldermask,Bot*%
%TF.FilePolarity,Negative*%
%FSLAX46Y46*%
G04 Gerber Fmt 4.6, Leading zero omitted, Abs format (unit mm)*
G04 Created by KiCad (PCBNEW 7.0.8) date 2023-12-05 04:00:53*
%MOMM*%
%LPD*%
G01*
G04 APERTURE LIST*
G04 Aperture macros list*
%AMHorizOval*
0 Thick line with rounded ends*
0 $1 width*
0 $2 $3 position (X,Y) of the first rounded end (center of the circle)*
0 $4 $5 position (X,Y) of the second rounded end (center of the circle)*
0 Add line between two ends*
20,1,$1,$2,$3,$4,$5,0*
0 Add two circle primitives to create the rounded ends*
1,1,$1,$2,$3*
1,1,$1,$4,$5*%
%AMRotRect*
0 Rectangle, with rotation*
0 The origin of the aperture is its center*
0 $1 length*
0 $2 width*
0 $3 Rotation angle, in degrees counterclockwise*
0 Add horizontal line*
21,1,$1,$2,0,0,$3*%
G04 Aperture macros list end*
%ADD10C,1.750000*%
%ADD11C,3.987800*%
%ADD12C,2.300000*%
%ADD13C,4.000000*%
%ADD14HorizOval,1.600000X0.000000X0.000000X0.000000X0.000000X0*%
%ADD15RotRect,1.600000X1.600000X60.000000*%
%ADD16HorizOval,1.600000X0.000000X0.000000X0.000000X0.000000X0*%
%ADD17RotRect,1.600000X1.600000X120.000000*%
%ADD18O,3.000000X2.000000*%
G04 APERTURE END LIST*
D10*
%TO.C,SW3*%
X85657551Y-62178040D03*
D11*
X90056960Y-64718040D03*
D10*
X94456369Y-67258040D03*
D12*
X88027403Y-60613335D03*
X94796665Y-61588631D03*
%TD*%
D10*
%TO.C,SW21*%
X33610783Y-76122772D03*
D11*
X38010192Y-78662772D03*
D10*
X42409601Y-81202772D03*
D12*
X35980635Y-74558067D03*
X42749897Y-75533363D03*
%TD*%
D10*
%TO.C,SW22*%
X50108567Y-85647772D03*
D11*
X54507976Y-88187772D03*
D10*
X58907385Y-90727772D03*
D12*
X52478419Y-84083067D03*
X59247681Y-85058363D03*
%TD*%
D10*
%TO.C,SW17*%
X196221947Y-93279988D03*
D11*
X200621356Y-90739988D03*
D10*
X205020765Y-88199988D03*
D12*
X196051799Y-90445283D03*
X200281061Y-85070579D03*
%TD*%
D10*
%TO.C,SW27*%
X205745847Y-109778608D03*
D11*
X210145256Y-107238608D03*
D10*
X214544665Y-104698608D03*
D12*
X205575699Y-106943903D03*
X209804961Y-101569199D03*
%TD*%
D10*
%TO.C,SW15*%
X109126919Y-97725472D03*
D11*
X113526328Y-100265472D03*
D10*
X117925737Y-102805472D03*
D12*
X111496771Y-96160767D03*
X118266033Y-97136063D03*
%TD*%
D10*
%TO.C,SW29*%
X238741415Y-90728608D03*
D11*
X243140824Y-88188608D03*
D10*
X247540233Y-85648608D03*
D12*
X238571267Y-87893903D03*
X242800529Y-82519199D03*
%TD*%
D10*
%TO.C,SW1*%
X52661983Y-43128040D03*
D11*
X57061392Y-45668040D03*
D10*
X61460801Y-48208040D03*
D12*
X55031835Y-41563335D03*
X61801097Y-42538631D03*
%TD*%
D10*
%TO.C,SW12*%
X59633567Y-69150472D03*
D11*
X64032976Y-71690472D03*
D10*
X68432385Y-74230472D03*
D12*
X62003419Y-67585767D03*
X68772681Y-68561063D03*
%TD*%
D10*
%TO.C,SW13*%
X76131351Y-78675472D03*
D11*
X80530760Y-81215472D03*
D10*
X84930169Y-83755472D03*
D12*
X78501203Y-77110767D03*
X85270465Y-78086063D03*
%TD*%
D10*
%TO.C,SW6*%
X170199163Y-86307688D03*
D11*
X174598572Y-83767688D03*
D10*
X178997981Y-81227688D03*
D12*
X170029015Y-83472983D03*
X174258277Y-78098279D03*
%TD*%
D10*
%TO.C,SW28*%
X222243631Y-100253608D03*
D11*
X226643040Y-97713608D03*
D10*
X231042449Y-95173608D03*
D12*
X222073483Y-97418903D03*
X226302745Y-92044199D03*
%TD*%
D10*
%TO.C,SW9*%
X219692515Y-57732688D03*
D11*
X224091924Y-55192688D03*
D10*
X228491333Y-52652688D03*
D12*
X219522367Y-54897983D03*
X223751629Y-49523279D03*
%TD*%
D10*
%TO.C,SW19*%
X229217515Y-74229988D03*
D11*
X233616924Y-71689988D03*
D10*
X238016333Y-69149988D03*
D12*
X229047367Y-71395283D03*
X233276629Y-66020579D03*
%TD*%
D10*
%TO.C,SW20*%
X245715299Y-64704988D03*
D11*
X250114708Y-62164988D03*
D10*
X254514117Y-59624988D03*
D12*
X245545151Y-61870283D03*
X249774413Y-56495579D03*
%TD*%
D13*
%TO.C,S32*%
X200479057Y-142881240D03*
D11*
X192859057Y-129683013D03*
D13*
X179856827Y-154787490D03*
D11*
X172236827Y-141589263D03*
%TD*%
D10*
%TO.C,SW31*%
X106575903Y-140246392D03*
D11*
X110975312Y-142786392D03*
D10*
X115374721Y-145326392D03*
D12*
X108945755Y-138681687D03*
X115715017Y-139656983D03*
%TD*%
D10*
%TO.C,SW7*%
X186696947Y-76782688D03*
D11*
X191096356Y-74242688D03*
D10*
X195495765Y-71702688D03*
D12*
X186526799Y-73947983D03*
X190756061Y-68573279D03*
%TD*%
D10*
%TO.C,SW4*%
X102155335Y-71703040D03*
D11*
X106554744Y-74243040D03*
D10*
X110954153Y-76783040D03*
D12*
X104525187Y-70138335D03*
X111294449Y-71113631D03*
%TD*%
D10*
%TO.C,SW5*%
X118653119Y-81228040D03*
D11*
X123052528Y-83768040D03*
D10*
X127451937Y-86308040D03*
D12*
X121022971Y-79663335D03*
X127792233Y-80638631D03*
%TD*%
D10*
%TO.C,SW18*%
X212719731Y-83754988D03*
D11*
X217119140Y-81214988D03*
D10*
X221518549Y-78674988D03*
D12*
X212549583Y-80920283D03*
X216778845Y-75545579D03*
%TD*%
D10*
%TO.C,SW11*%
X43135783Y-59625472D03*
D11*
X47535192Y-62165472D03*
D10*
X51934601Y-64705472D03*
D12*
X45505635Y-58060767D03*
X52274897Y-59036063D03*
%TD*%
D10*
%TO.C,SW2*%
X69159767Y-52653040D03*
D11*
X73559176Y-55193040D03*
D10*
X77958585Y-57733040D03*
D12*
X71529619Y-51088335D03*
X78298881Y-52063631D03*
%TD*%
D10*
%TO.C,SW23*%
X66606351Y-95172772D03*
D11*
X71005760Y-97712772D03*
D10*
X75405169Y-100252772D03*
D12*
X68976203Y-93608067D03*
X75745465Y-94583363D03*
%TD*%
D10*
%TO.C,SW14*%
X92629135Y-88200472D03*
D11*
X97028544Y-90740472D03*
D10*
X101427953Y-93280472D03*
D12*
X94998987Y-86635767D03*
X101768249Y-87611063D03*
%TD*%
D10*
%TO.C,SW24*%
X83104135Y-104697772D03*
D11*
X87503544Y-107237772D03*
D10*
X91902953Y-109777772D03*
D12*
X85473987Y-103133067D03*
X92243249Y-104108363D03*
%TD*%
D13*
%TO.C,S31*%
X117793073Y-154787490D03*
D11*
X125413073Y-141589263D03*
D13*
X97170843Y-142881240D03*
D11*
X104790843Y-129683013D03*
%TD*%
D10*
%TO.C,SW25*%
X99601919Y-114222772D03*
D11*
X104001328Y-116762772D03*
D10*
X108400737Y-119302772D03*
D12*
X101971771Y-112658067D03*
X108741033Y-113633363D03*
%TD*%
D10*
%TO.C,SW8*%
X203194731Y-67257688D03*
D11*
X207594140Y-64717688D03*
D10*
X211993549Y-62177688D03*
D12*
X203024583Y-64422983D03*
X207253845Y-59048279D03*
%TD*%
D10*
%TO.C,SW16*%
X179724163Y-102804988D03*
D11*
X184123572Y-100264988D03*
D10*
X188522981Y-97724988D03*
D12*
X179554015Y-99970283D03*
X183783277Y-94595579D03*
%TD*%
D10*
%TO.C,SW32*%
X182275279Y-145326392D03*
D11*
X186674688Y-142786392D03*
D10*
X191074097Y-140246392D03*
D12*
X182105131Y-142491687D03*
X186334393Y-137116983D03*
%TD*%
D10*
%TO.C,SW10*%
X236190299Y-48207688D03*
D11*
X240589708Y-45667688D03*
D10*
X244989117Y-43127688D03*
D12*
X236020151Y-45372983D03*
X240249413Y-39998279D03*
%TD*%
D10*
%TO.C,SW30*%
X255239199Y-81203608D03*
D11*
X259638608Y-78663608D03*
D10*
X264038017Y-76123608D03*
D12*
X255069051Y-78368903D03*
X259298313Y-72994199D03*
%TD*%
D10*
%TO.C,SW26*%
X189248063Y-119303608D03*
D11*
X193647472Y-116763608D03*
D10*
X198046881Y-114223608D03*
D12*
X189077915Y-116468903D03*
X193307177Y-111094199D03*
%TD*%
D14*
%TO.C,D21*%
X46991947Y-79654662D03*
D15*
X43181947Y-86253776D03*
%TD*%
D16*
%TO.C,D16*%
X189473452Y-92982505D03*
D17*
X193283452Y-99581619D03*
%TD*%
D16*
%TO.C,D7*%
X196446235Y-66960205D03*
D17*
X200256235Y-73559319D03*
%TD*%
D14*
%TO.C,D11*%
X56516947Y-63157362D03*
D15*
X52706947Y-69756476D03*
%TD*%
D14*
%TO.C,D15*%
X122508083Y-101257362D03*
D15*
X118698083Y-107856476D03*
%TD*%
D16*
%TO.C,D18*%
X222469020Y-73932505D03*
D17*
X226279020Y-80531619D03*
%TD*%
D16*
%TO.C,D17*%
X205971236Y-83457505D03*
D17*
X209781236Y-90056619D03*
%TD*%
D16*
%TO.C,D28*%
X231992920Y-90431125D03*
D17*
X235802920Y-97030239D03*
%TD*%
D14*
%TO.C,D2*%
X82540931Y-56184930D03*
D15*
X78730931Y-62784044D03*
%TD*%
D14*
%TO.C,D1*%
X66043147Y-46659930D03*
D15*
X62233147Y-53259044D03*
%TD*%
D14*
%TO.C,D25*%
X112983083Y-117754662D03*
D15*
X109173083Y-124353776D03*
%TD*%
D16*
%TO.C,D19*%
X238966804Y-64407505D03*
D17*
X242776804Y-71006619D03*
%TD*%
D14*
%TO.C,D24*%
X96485299Y-108229662D03*
D15*
X92675299Y-114828776D03*
%TD*%
D14*
%TO.C,D31*%
X119957067Y-143778282D03*
D15*
X116147067Y-150377396D03*
%TD*%
D14*
%TO.C,D22*%
X63489731Y-89179662D03*
D15*
X59679731Y-95778776D03*
%TD*%
D16*
%TO.C,D30*%
X264988488Y-71381125D03*
D17*
X268798488Y-77980239D03*
%TD*%
D16*
%TO.C,D29*%
X248490704Y-80906125D03*
D17*
X252300704Y-87505239D03*
%TD*%
D14*
%TO.C,D3*%
X99038715Y-65709930D03*
D15*
X95228715Y-72309044D03*
%TD*%
D18*
%TO.C,U1*%
X141204950Y-82420000D03*
X141204950Y-84960000D03*
X141204950Y-87500000D03*
X141204950Y-90040000D03*
X141204950Y-92580000D03*
X141204950Y-95120000D03*
X141204950Y-97660000D03*
X141204950Y-100200000D03*
X141204950Y-102740000D03*
X141204950Y-105280000D03*
X141204950Y-107820000D03*
X141204950Y-110360000D03*
X141204950Y-112900000D03*
X156444950Y-112900000D03*
X156444950Y-110360000D03*
X156444950Y-107820000D03*
X156444950Y-105280000D03*
X156444950Y-102740000D03*
X156444950Y-100200000D03*
X156444950Y-97660000D03*
X156444950Y-95120000D03*
X156444950Y-92580000D03*
X156444950Y-90040000D03*
X156444950Y-87500000D03*
X156444950Y-84960000D03*
X156444950Y-82420000D03*
%TD*%
D14*
%TO.C,D5*%
X132034283Y-84759930D03*
D15*
X128224283Y-91359044D03*
%TD*%
D16*
%TO.C,D27*%
X215495136Y-99956125D03*
D17*
X219305136Y-106555239D03*
%TD*%
D14*
%TO.C,D13*%
X89512515Y-82207362D03*
D15*
X85702515Y-88806476D03*
%TD*%
D14*
%TO.C,D23*%
X79987515Y-98704662D03*
D15*
X76177515Y-105303776D03*
%TD*%
D16*
%TO.C,D26*%
X198997352Y-109481125D03*
D17*
X202807352Y-116080239D03*
%TD*%
D16*
%TO.C,D20*%
X255464588Y-54882505D03*
D17*
X259274588Y-61481619D03*
%TD*%
D14*
%TO.C,D14*%
X106010299Y-91732362D03*
D15*
X102200299Y-98331476D03*
%TD*%
D16*
%TO.C,D8*%
X212944019Y-57435205D03*
D17*
X216754019Y-64034319D03*
%TD*%
D16*
%TO.C,D6*%
X179948451Y-76485205D03*
D17*
X183758451Y-83084319D03*
%TD*%
D16*
%TO.C,D10*%
X245939587Y-38385205D03*
D17*
X249749587Y-44984319D03*
%TD*%
D14*
%TO.C,D4*%
X115536499Y-75234930D03*
D15*
X111726499Y-81834044D03*
%TD*%
D16*
%TO.C,D32*%
X192024568Y-135503909D03*
D17*
X195834568Y-142103023D03*
%TD*%
D16*
%TO.C,D9*%
X229441803Y-47910205D03*
D17*
X233251803Y-54509319D03*
%TD*%
D14*
%TO.C,D12*%
X73014731Y-72682362D03*
D15*
X69204731Y-79281476D03*
%TD*%
M02*
