M48
; DRILL file {KiCad 7.0.8} date Tue Dec  5 04:00:54 2023
; FORMAT={-:-/ absolute / inch / decimal}
; #@! TF.CreationDate,2023-12-05T04:00:54-05:00
; #@! TF.GenerationSoftware,Kicad,Pcbnew,7.0.8
; #@! TF.FileFunction,NonPlated,1,2,NPTH
FMAT,2
INCH
; #@! TA.AperFunction,NonPlated,NPTH,ComponentDrill
T1C0.0689
; #@! TA.AperFunction,NonPlated,NPTH,ComponentDrill
T2C0.1570
%
G90
G05
T1
X1.3233Y-2.997
X1.6697Y-3.197
X1.6983Y-2.3475
X1.9728Y-3.372
X2.0447Y-2.5475
X2.0733Y-1.698
X2.3192Y-3.572
X2.3478Y-2.7225
X2.4197Y-1.898
X2.6223Y-3.747
X2.6942Y-2.9225
X2.7228Y-2.073
X2.9687Y-3.947
X2.9973Y-3.0975
X3.0692Y-2.273
X3.2718Y-4.122
X3.3437Y-3.2975
X3.3723Y-2.448
X3.6182Y-4.322
X3.6468Y-3.4725
X3.7188Y-2.648
X3.9213Y-4.497
X3.9932Y-3.6725
X4.0219Y-2.823
X4.1959Y-5.5215
X4.2677Y-4.697
X4.2963Y-3.8475
X4.3683Y-3.023
X4.5423Y-5.7215
X4.6427Y-4.0475
X4.6714Y-3.198
X5.0178Y-3.398
X6.7008Y-3.3979
X7.0472Y-3.1979
X7.0758Y-4.0474
X7.1762Y-5.7215
X7.3503Y-3.0229
X7.4222Y-3.8474
X7.4507Y-4.697
X7.5226Y-5.5215
X7.6967Y-2.8229
X7.7253Y-3.6724
X7.7971Y-4.497
X7.9998Y-2.6479
X8.0717Y-3.4724
X8.1002Y-4.322
X8.3462Y-2.4479
X8.3748Y-3.2974
X8.4466Y-4.122
X8.6493Y-2.2729
X8.7212Y-3.0974
X8.7497Y-3.947
X8.9957Y-2.0729
X9.0243Y-2.9224
X9.0962Y-3.747
X9.2988Y-1.8979
X9.3707Y-2.7224
X9.3993Y-3.572
X9.6452Y-1.6979
X9.6738Y-2.5474
X9.7457Y-3.372
X10.0202Y-2.3474
X10.0488Y-3.197
X10.3952Y-2.997
T2
X1.4965Y-3.097
X1.8715Y-2.4475
X2.146Y-3.472
X2.2465Y-1.798
X2.521Y-2.8225
X2.7955Y-3.847
X2.896Y-2.173
X3.1705Y-3.1975
X3.445Y-4.222
X3.5455Y-2.548
X3.82Y-3.5725
X4.0945Y-4.597
X4.1256Y-5.1056
X4.1951Y-2.923
X4.3691Y-5.6215
X4.4695Y-3.9475
X4.8446Y-3.298
X4.9375Y-5.5744
X6.781Y-5.5744
X6.874Y-3.2979
X7.249Y-3.9474
X7.3494Y-5.6215
X7.5235Y-2.9229
X7.5929Y-5.1056
X7.6239Y-4.597
X7.8985Y-3.5724
X8.173Y-2.5479
X8.2734Y-4.222
X8.548Y-3.1974
X8.8225Y-2.1729
X8.923Y-3.847
X9.1975Y-2.8224
X9.472Y-1.7979
X9.5725Y-3.472
X9.847Y-2.4474
X10.222Y-3.097
T0
M30
