M48
; DRILL file {KiCad 7.0.8} date Tue Dec  5 04:00:54 2023
; FORMAT={-:-/ absolute / inch / decimal}
; #@! TF.CreationDate,2023-12-05T04:00:54-05:00
; #@! TF.GenerationSoftware,Kicad,Pcbnew,7.0.8
; #@! TF.FileFunction,Plated,1,2,PTH
FMAT,2
INCH
; #@! TA.AperFunction,Plated,PTH,ComponentDrill
T1C0.0315
; #@! TA.AperFunction,Plated,PTH,ComponentDrill
T2C0.0394
; #@! TA.AperFunction,Plated,PTH,ComponentDrill
T3C0.0600
; #@! TA.AperFunction,Plated,PTH,ComponentDrill
T4C0.1200
%
G90
G05
T1
X1.7001Y-3.3958
X1.8501Y-3.136
X2.0751Y-2.7463
X2.2251Y-2.4865
X2.3496Y-3.7708
X2.4501Y-2.0968
X2.4996Y-3.511
X2.6001Y-1.837
X2.7246Y-3.1213
X2.8746Y-2.8615
X2.9991Y-4.1458
X3.0996Y-2.4718
X3.1491Y-3.886
X3.2496Y-2.212
X3.3741Y-3.4963
X3.5241Y-3.2365
X3.6486Y-4.5208
X3.7492Y-2.8468
X3.7986Y-4.261
X3.8992Y-2.587
X4.0236Y-3.8713
X4.1736Y-3.6115
X4.2982Y-4.8958
X4.3987Y-3.2218
X4.4482Y-4.636
X4.5487Y-2.962
X4.5727Y-5.9204
X4.6732Y-4.2463
X4.7227Y-5.6606
X4.8232Y-3.9865
X5.0482Y-3.5968
X5.1982Y-3.337
X7.0846Y-3.0112
X7.2346Y-3.271
X7.4596Y-3.6607
X7.56Y-5.3348
X7.6096Y-3.9205
X7.71Y-5.5946
X7.7341Y-2.6362
X7.8345Y-4.3103
X7.8841Y-2.896
X7.9845Y-4.5701
X8.1091Y-3.2857
X8.2591Y-3.5455
X8.3836Y-2.2612
X8.4841Y-3.9353
X8.5336Y-2.521
X8.6341Y-4.1951
X8.7586Y-2.9107
X8.9086Y-3.1705
X9.0331Y-1.8862
X9.1336Y-3.5603
X9.1831Y-2.146
X9.2836Y-3.8201
X9.4081Y-2.5357
X9.5581Y-2.7955
X9.6827Y-1.5112
X9.7831Y-3.1853
X9.8327Y-1.771
X9.9331Y-3.4451
X10.0577Y-2.1607
X10.2077Y-2.4205
X10.4326Y-2.8103
X10.5826Y-3.0701
T2
X5.5592Y-3.2449
X5.5592Y-3.3449
X5.5592Y-3.4449
X5.5592Y-3.5449
X5.5592Y-3.6449
X5.5592Y-3.7449
X5.5592Y-3.8449
X5.5592Y-3.9449
X5.5592Y-4.0449
X5.5592Y-4.1449
X5.5592Y-4.2449
X5.5592Y-4.3449
X5.5592Y-4.4449
X6.1593Y-3.2449
X6.1593Y-3.3449
X6.1593Y-3.4449
X6.1593Y-3.5449
X6.1593Y-3.6449
X6.1593Y-3.7449
X6.1593Y-3.8449
X6.1593Y-3.9449
X6.1593Y-4.0449
X6.1593Y-4.1449
X6.1593Y-4.2449
X6.1593Y-4.3449
X6.1593Y-4.4449
T3
X1.4166Y-2.9354
X1.6831Y-2.9738
X1.7916Y-2.2859
X2.0581Y-2.3243
X2.0661Y-3.3104
X2.1666Y-1.6364
X2.3326Y-3.3488
X2.4331Y-1.6747
X2.4411Y-2.6609
X2.7076Y-2.6993
X2.7156Y-3.6854
X2.8161Y-2.0114
X2.9821Y-3.7238
X3.0826Y-2.0497
X3.0906Y-3.0359
X3.3571Y-3.0743
X3.3651Y-4.0604
X3.4656Y-2.3864
X3.6316Y-4.0988
X3.7322Y-2.4247
X3.7401Y-3.4109
X4.0066Y-3.4493
X4.0146Y-4.4354
X4.1152Y-2.7614
X4.2811Y-4.4738
X4.2892Y-5.4599
X4.3817Y-2.7997
X4.3896Y-3.7859
X4.5557Y-5.4983
X4.6561Y-3.8243
X4.7647Y-3.1364
X5.0312Y-3.1747
X6.6941Y-3.2863
X6.8606Y-3.0747
X7.0691Y-3.9358
X7.1695Y-5.6099
X7.2356Y-3.7242
X7.336Y-5.3983
X7.3436Y-2.9113
X7.444Y-4.5854
X7.5101Y-2.6997
X7.6105Y-4.3738
X7.7186Y-3.5608
X7.8851Y-3.3492
X7.9931Y-2.5363
X8.0935Y-4.2104
X8.1596Y-2.3247
X8.26Y-3.9988
X8.3681Y-3.1858
X8.5346Y-2.9742
X8.6426Y-2.1613
X8.7431Y-3.8354
X8.8091Y-1.9497
X8.9096Y-3.6238
X9.0176Y-2.8108
X9.1841Y-2.5992
X9.2921Y-1.7863
X9.3926Y-3.4604
X9.4586Y-1.5747
X9.5591Y-3.2488
X9.6671Y-2.4358
X9.8336Y-2.2242
X10.0421Y-3.0854
X10.2086Y-2.8738
T4
X3.8256Y-5.6252
X4.6375Y-6.094
X7.081Y-6.094
X7.8929Y-5.6252
T0
M30
