%TF.GenerationSoftware,KiCad,Pcbnew,7.0.8*%
%TF.CreationDate,2023-12-03T22:10:45-05:00*%
%TF.ProjectId,4900_keeb_for_me,34393030-5f6b-4656-9562-5f666f725f6d,rev?*%
%TF.SameCoordinates,Original*%
%TF.FileFunction,Copper,L2,Bot*%
%TF.FilePolarity,Positive*%
%FSLAX46Y46*%
G04 Gerber Fmt 4.6, Leading zero omitted, Abs format (unit mm)*
G04 Created by KiCad (PCBNEW 7.0.8) date 2023-12-03 22:10:45*
%MOMM*%
%LPD*%
G01*
G04 APERTURE LIST*
G04 Aperture macros list*
%AMHorizOval*
0 Thick line with rounded ends*
0 $1 width*
0 $2 $3 position (X,Y) of the first rounded end (center of the circle)*
0 $4 $5 position (X,Y) of the second rounded end (center of the circle)*
0 Add line between two ends*
20,1,$1,$2,$3,$4,$5,0*
0 Add two circle primitives to create the rounded ends*
1,1,$1,$2,$3*
1,1,$1,$4,$5*%
%AMRotRect*
0 Rectangle, with rotation*
0 The origin of the aperture is its center*
0 $1 length*
0 $2 width*
0 $3 Rotation angle, in degrees counterclockwise*
0 Add horizontal line*
21,1,$1,$2,0,0,$3*%
G04 Aperture macros list end*
%TA.AperFunction,ComponentPad*%
%ADD10C,2.300000*%
%TD*%
%TA.AperFunction,ComponentPad*%
%ADD11C,4.000000*%
%TD*%
%TA.AperFunction,ComponentPad*%
%ADD12RotRect,1.600000X1.600000X60.000000*%
%TD*%
%TA.AperFunction,ComponentPad*%
%ADD13HorizOval,1.600000X0.000000X0.000000X0.000000X0.000000X0*%
%TD*%
%TA.AperFunction,ComponentPad*%
%ADD14RotRect,1.600000X1.600000X120.000000*%
%TD*%
%TA.AperFunction,ComponentPad*%
%ADD15HorizOval,1.600000X0.000000X0.000000X0.000000X0.000000X0*%
%TD*%
%TA.AperFunction,ComponentPad*%
%ADD16O,3.000000X2.000000*%
%TD*%
%TA.AperFunction,Conductor*%
%ADD17C,0.250000*%
%TD*%
G04 APERTURE END LIST*
D10*
%TO.P,SW3,2,2*%
%TO.N,Net-(D3-A)*%
X94796665Y-61588631D03*
%TO.P,SW3,1,1*%
%TO.N,/COL3*%
X88027403Y-60613335D03*
%TD*%
%TO.P,SW21,2,2*%
%TO.N,Net-(D21-A)*%
X42749897Y-75533363D03*
%TO.P,SW21,1,1*%
%TO.N,/COL1*%
X35980635Y-74558067D03*
%TD*%
%TO.P,SW22,2,2*%
%TO.N,Net-(D22-A)*%
X59247681Y-85058363D03*
%TO.P,SW22,1,1*%
%TO.N,/COL2*%
X52478419Y-84083067D03*
%TD*%
%TO.P,SW17,2,2*%
%TO.N,Net-(D17-A)*%
X200281061Y-85070579D03*
%TO.P,SW17,1,1*%
%TO.N,/COL7*%
X196051799Y-90445283D03*
%TD*%
%TO.P,SW27,2,2*%
%TO.N,Net-(D27-A)*%
X209804961Y-101569199D03*
%TO.P,SW27,1,1*%
%TO.N,/COL7*%
X205575699Y-106943903D03*
%TD*%
%TO.P,SW15,2,2*%
%TO.N,Net-(D15-A)*%
X118266033Y-97136063D03*
%TO.P,SW15,1,1*%
%TO.N,/COL5*%
X111496771Y-96160767D03*
%TD*%
%TO.P,SW29,2,2*%
%TO.N,Net-(D29-A)*%
X242800529Y-82519199D03*
%TO.P,SW29,1,1*%
%TO.N,/COL9*%
X238571267Y-87893903D03*
%TD*%
%TO.P,SW1,2,2*%
%TO.N,Net-(D1-A)*%
X61801097Y-42538631D03*
%TO.P,SW1,1,1*%
%TO.N,/COL1*%
X55031835Y-41563335D03*
%TD*%
%TO.P,SW12,2,2*%
%TO.N,Net-(D12-A)*%
X68772681Y-68561063D03*
%TO.P,SW12,1,1*%
%TO.N,/COL2*%
X62003419Y-67585767D03*
%TD*%
%TO.P,SW13,2,2*%
%TO.N,Net-(D13-A)*%
X85270465Y-78086063D03*
%TO.P,SW13,1,1*%
%TO.N,/COL3*%
X78501203Y-77110767D03*
%TD*%
%TO.P,SW6,2,2*%
%TO.N,Net-(D6-A)*%
X174258277Y-78098279D03*
%TO.P,SW6,1,1*%
%TO.N,/COL6*%
X170029015Y-83472983D03*
%TD*%
%TO.P,SW28,2,2*%
%TO.N,Net-(D28-A)*%
X226302745Y-92044199D03*
%TO.P,SW28,1,1*%
%TO.N,/COL8*%
X222073483Y-97418903D03*
%TD*%
%TO.P,SW9,2,2*%
%TO.N,Net-(D9-A)*%
X223751629Y-49523279D03*
%TO.P,SW9,1,1*%
%TO.N,/COL9*%
X219522367Y-54897983D03*
%TD*%
%TO.P,SW19,2,2*%
%TO.N,Net-(D19-A)*%
X233276629Y-66020579D03*
%TO.P,SW19,1,1*%
%TO.N,/COL9*%
X229047367Y-71395283D03*
%TD*%
%TO.P,SW20,2,2*%
%TO.N,Net-(D20-A)*%
X249774413Y-56495579D03*
%TO.P,SW20,1,1*%
%TO.N,/COL10*%
X245545151Y-61870283D03*
%TD*%
D11*
%TO.P,S32,*%
%TO.N,*%
X179856827Y-154787490D03*
X200479057Y-142881240D03*
%TD*%
D10*
%TO.P,SW31,2,2*%
%TO.N,Net-(D31-A)*%
X115715017Y-139656983D03*
%TO.P,SW31,1,1*%
%TO.N,/COL5*%
X108945755Y-138681687D03*
%TD*%
%TO.P,SW7,2,2*%
%TO.N,Net-(D7-A)*%
X190756061Y-68573279D03*
%TO.P,SW7,1,1*%
%TO.N,/COL7*%
X186526799Y-73947983D03*
%TD*%
%TO.P,SW4,2,2*%
%TO.N,Net-(D4-A)*%
X111294449Y-71113631D03*
%TO.P,SW4,1,1*%
%TO.N,/COL4*%
X104525187Y-70138335D03*
%TD*%
%TO.P,SW5,2,2*%
%TO.N,Net-(D5-A)*%
X127792233Y-80638631D03*
%TO.P,SW5,1,1*%
%TO.N,/COL5*%
X121022971Y-79663335D03*
%TD*%
%TO.P,SW18,2,2*%
%TO.N,Net-(D18-A)*%
X216778845Y-75545579D03*
%TO.P,SW18,1,1*%
%TO.N,/COL8*%
X212549583Y-80920283D03*
%TD*%
%TO.P,SW11,2,2*%
%TO.N,Net-(D11-A)*%
X52274897Y-59036063D03*
%TO.P,SW11,1,1*%
%TO.N,/COL1*%
X45505635Y-58060767D03*
%TD*%
%TO.P,SW2,2,2*%
%TO.N,Net-(D2-A)*%
X78298881Y-52063631D03*
%TO.P,SW2,1,1*%
%TO.N,/COL2*%
X71529619Y-51088335D03*
%TD*%
%TO.P,SW23,2,2*%
%TO.N,Net-(D23-A)*%
X75745465Y-94583363D03*
%TO.P,SW23,1,1*%
%TO.N,/COL3*%
X68976203Y-93608067D03*
%TD*%
%TO.P,SW14,2,2*%
%TO.N,Net-(D14-A)*%
X101768249Y-87611063D03*
%TO.P,SW14,1,1*%
%TO.N,/COL4*%
X94998987Y-86635767D03*
%TD*%
%TO.P,SW24,2,2*%
%TO.N,Net-(D24-A)*%
X92243249Y-104108363D03*
%TO.P,SW24,1,1*%
%TO.N,/COL4*%
X85473987Y-103133067D03*
%TD*%
D11*
%TO.P,S31,*%
%TO.N,*%
X97170843Y-142881240D03*
X117793073Y-154787490D03*
%TD*%
D10*
%TO.P,SW25,2,2*%
%TO.N,Net-(D25-A)*%
X108741033Y-113633363D03*
%TO.P,SW25,1,1*%
%TO.N,/COL5*%
X101971771Y-112658067D03*
%TD*%
%TO.P,SW8,2,2*%
%TO.N,Net-(D8-A)*%
X207253845Y-59048279D03*
%TO.P,SW8,1,1*%
%TO.N,/COL8*%
X203024583Y-64422983D03*
%TD*%
%TO.P,SW16,2,2*%
%TO.N,Net-(D16-A)*%
X183783277Y-94595579D03*
%TO.P,SW16,1,1*%
%TO.N,/COL6*%
X179554015Y-99970283D03*
%TD*%
%TO.P,SW32,2,2*%
%TO.N,Net-(D32-A)*%
X186334393Y-137116983D03*
%TO.P,SW32,1,1*%
%TO.N,/COL6*%
X182105131Y-142491687D03*
%TD*%
%TO.P,SW10,2,2*%
%TO.N,Net-(D10-A)*%
X240249413Y-39998279D03*
%TO.P,SW10,1,1*%
%TO.N,/COL10*%
X236020151Y-45372983D03*
%TD*%
%TO.P,SW30,2,2*%
%TO.N,Net-(D30-A)*%
X259298313Y-72994199D03*
%TO.P,SW30,1,1*%
%TO.N,/COL10*%
X255069051Y-78368903D03*
%TD*%
%TO.P,SW26,2,2*%
%TO.N,Net-(D26-A)*%
X193307177Y-111094199D03*
%TO.P,SW26,1,1*%
%TO.N,/COL6*%
X189077915Y-116468903D03*
%TD*%
D12*
%TO.P,D21,1,K*%
%TO.N,/ROW3*%
X43181947Y-86253776D03*
D13*
%TO.P,D21,2,A*%
%TO.N,Net-(D21-A)*%
X46991947Y-79654662D03*
%TD*%
D14*
%TO.P,D16,1,K*%
%TO.N,/ROW2*%
X193283452Y-99581619D03*
D15*
%TO.P,D16,2,A*%
%TO.N,Net-(D16-A)*%
X189473452Y-92982505D03*
%TD*%
D14*
%TO.P,D7,1,K*%
%TO.N,/ROW1*%
X200256235Y-73559319D03*
D15*
%TO.P,D7,2,A*%
%TO.N,Net-(D7-A)*%
X196446235Y-66960205D03*
%TD*%
D12*
%TO.P,D11,1,K*%
%TO.N,/ROW2*%
X52706947Y-69756476D03*
D13*
%TO.P,D11,2,A*%
%TO.N,Net-(D11-A)*%
X56516947Y-63157362D03*
%TD*%
D12*
%TO.P,D15,1,K*%
%TO.N,/ROW2*%
X118698083Y-107856476D03*
D13*
%TO.P,D15,2,A*%
%TO.N,Net-(D15-A)*%
X122508083Y-101257362D03*
%TD*%
D14*
%TO.P,D18,1,K*%
%TO.N,/ROW2*%
X226279020Y-80531619D03*
D15*
%TO.P,D18,2,A*%
%TO.N,Net-(D18-A)*%
X222469020Y-73932505D03*
%TD*%
D14*
%TO.P,D17,1,K*%
%TO.N,/ROW2*%
X209781236Y-90056619D03*
D15*
%TO.P,D17,2,A*%
%TO.N,Net-(D17-A)*%
X205971236Y-83457505D03*
%TD*%
D14*
%TO.P,D28,1,K*%
%TO.N,/ROW3*%
X235802920Y-97030239D03*
D15*
%TO.P,D28,2,A*%
%TO.N,Net-(D28-A)*%
X231992920Y-90431125D03*
%TD*%
D12*
%TO.P,D2,1,K*%
%TO.N,/ROW1*%
X78730931Y-62784044D03*
D13*
%TO.P,D2,2,A*%
%TO.N,Net-(D2-A)*%
X82540931Y-56184930D03*
%TD*%
D12*
%TO.P,D1,1,K*%
%TO.N,/ROW1*%
X62233147Y-53259044D03*
D13*
%TO.P,D1,2,A*%
%TO.N,Net-(D1-A)*%
X66043147Y-46659930D03*
%TD*%
D12*
%TO.P,D25,1,K*%
%TO.N,/ROW3*%
X109173083Y-124353776D03*
D13*
%TO.P,D25,2,A*%
%TO.N,Net-(D25-A)*%
X112983083Y-117754662D03*
%TD*%
D14*
%TO.P,D19,1,K*%
%TO.N,/ROW2*%
X242776804Y-71006619D03*
D15*
%TO.P,D19,2,A*%
%TO.N,Net-(D19-A)*%
X238966804Y-64407505D03*
%TD*%
D12*
%TO.P,D24,1,K*%
%TO.N,/ROW3*%
X92675299Y-114828776D03*
D13*
%TO.P,D24,2,A*%
%TO.N,Net-(D24-A)*%
X96485299Y-108229662D03*
%TD*%
D12*
%TO.P,D31,1,K*%
%TO.N,/ROW4*%
X116147067Y-150377396D03*
D13*
%TO.P,D31,2,A*%
%TO.N,Net-(D31-A)*%
X119957067Y-143778282D03*
%TD*%
D12*
%TO.P,D22,1,K*%
%TO.N,/ROW3*%
X59679731Y-95778776D03*
D13*
%TO.P,D22,2,A*%
%TO.N,Net-(D22-A)*%
X63489731Y-89179662D03*
%TD*%
D14*
%TO.P,D30,1,K*%
%TO.N,/ROW3*%
X268798488Y-77980239D03*
D15*
%TO.P,D30,2,A*%
%TO.N,Net-(D30-A)*%
X264988488Y-71381125D03*
%TD*%
D14*
%TO.P,D29,1,K*%
%TO.N,/ROW3*%
X252300704Y-87505239D03*
D15*
%TO.P,D29,2,A*%
%TO.N,Net-(D29-A)*%
X248490704Y-80906125D03*
%TD*%
D12*
%TO.P,D3,1,K*%
%TO.N,/ROW1*%
X95228715Y-72309044D03*
D13*
%TO.P,D3,2,A*%
%TO.N,Net-(D3-A)*%
X99038715Y-65709930D03*
%TD*%
D16*
%TO.P,U1,26,D10*%
%TO.N,/COL1*%
X141204950Y-82420000D03*
%TO.P,U1,25,MOSI*%
%TO.N,unconnected-(U1-MOSI-Pad25)*%
X141204950Y-84960000D03*
%TO.P,U1,24,MISO*%
%TO.N,unconnected-(U1-MISO-Pad24)*%
X141204950Y-87500000D03*
%TO.P,U1,23,SCK*%
%TO.N,unconnected-(U1-SCK-Pad23)*%
X141204950Y-90040000D03*
%TO.P,U1,22,A0*%
%TO.N,/COL2*%
X141204950Y-92580000D03*
%TO.P,U1,21,A1*%
%TO.N,/COL3*%
X141204950Y-95120000D03*
%TO.P,U1,20,A2*%
%TO.N,/COL4*%
X141204950Y-97660000D03*
%TO.P,U1,19,A3*%
%TO.N,/COL5*%
X141204950Y-100200000D03*
%TO.P,U1,18,3V3*%
%TO.N,+3V3*%
X141204950Y-102740000D03*
%TO.P,U1,17,RESET*%
%TO.N,unconnected-(U1-RESET-Pad17)*%
X141204950Y-105280000D03*
%TO.P,U1,16,GND*%
%TO.N,GND*%
X141204950Y-107820000D03*
%TO.P,U1,15,RAW*%
%TO.N,unconnected-(U1-RAW-Pad15)*%
X141204950Y-110360000D03*
%TO.P,U1,14,D-*%
%TO.N,unconnected-(U1-D--Pad14)*%
X141204950Y-112900000D03*
%TO.P,U1,13,D9*%
%TO.N,/ROW4*%
X156444950Y-112900000D03*
%TO.P,U1,12,D8*%
%TO.N,/ROW3*%
X156444950Y-110360000D03*
%TO.P,U1,11,D7*%
%TO.N,/ROW2*%
X156444950Y-107820000D03*
%TO.P,U1,10,D6*%
%TO.N,/ROW1*%
X156444950Y-105280000D03*
%TO.P,U1,9,D5*%
%TO.N,/COL6*%
X156444950Y-102740000D03*
%TO.P,U1,8,D4*%
%TO.N,/COL7*%
X156444950Y-100200000D03*
%TO.P,U1,7,D3*%
%TO.N,/COL8*%
X156444950Y-97660000D03*
%TO.P,U1,6,D2*%
%TO.N,/COL9*%
X156444950Y-95120000D03*
%TO.P,U1,5,GND*%
%TO.N,GND*%
X156444950Y-92580000D03*
%TO.P,U1,4,GND*%
X156444950Y-90040000D03*
%TO.P,U1,3,D1*%
%TO.N,/COL10*%
X156444950Y-87500000D03*
%TO.P,U1,2,D0*%
%TO.N,unconnected-(U1-D0-Pad2)*%
X156444950Y-84960000D03*
%TO.P,U1,1,D+*%
%TO.N,unconnected-(U1-D+-Pad1)*%
X156444950Y-82420000D03*
%TD*%
D12*
%TO.P,D5,1,K*%
%TO.N,/ROW1*%
X128224283Y-91359044D03*
D13*
%TO.P,D5,2,A*%
%TO.N,Net-(D5-A)*%
X132034283Y-84759930D03*
%TD*%
D14*
%TO.P,D27,1,K*%
%TO.N,/ROW3*%
X219305136Y-106555239D03*
D15*
%TO.P,D27,2,A*%
%TO.N,Net-(D27-A)*%
X215495136Y-99956125D03*
%TD*%
D12*
%TO.P,D13,1,K*%
%TO.N,/ROW2*%
X85702515Y-88806476D03*
D13*
%TO.P,D13,2,A*%
%TO.N,Net-(D13-A)*%
X89512515Y-82207362D03*
%TD*%
D12*
%TO.P,D23,1,K*%
%TO.N,/ROW3*%
X76177515Y-105303776D03*
D13*
%TO.P,D23,2,A*%
%TO.N,Net-(D23-A)*%
X79987515Y-98704662D03*
%TD*%
D14*
%TO.P,D26,1,K*%
%TO.N,/ROW3*%
X202807352Y-116080239D03*
D15*
%TO.P,D26,2,A*%
%TO.N,Net-(D26-A)*%
X198997352Y-109481125D03*
%TD*%
D14*
%TO.P,D20,1,K*%
%TO.N,/ROW2*%
X259274588Y-61481619D03*
D15*
%TO.P,D20,2,A*%
%TO.N,Net-(D20-A)*%
X255464588Y-54882505D03*
%TD*%
D12*
%TO.P,D14,1,K*%
%TO.N,/ROW2*%
X102200299Y-98331476D03*
D13*
%TO.P,D14,2,A*%
%TO.N,Net-(D14-A)*%
X106010299Y-91732362D03*
%TD*%
D14*
%TO.P,D8,1,K*%
%TO.N,/ROW1*%
X216754019Y-64034319D03*
D15*
%TO.P,D8,2,A*%
%TO.N,Net-(D8-A)*%
X212944019Y-57435205D03*
%TD*%
D14*
%TO.P,D6,1,K*%
%TO.N,/ROW1*%
X183758451Y-83084319D03*
D15*
%TO.P,D6,2,A*%
%TO.N,Net-(D6-A)*%
X179948451Y-76485205D03*
%TD*%
D14*
%TO.P,D10,1,K*%
%TO.N,/ROW1*%
X249749587Y-44984319D03*
D15*
%TO.P,D10,2,A*%
%TO.N,Net-(D10-A)*%
X245939587Y-38385205D03*
%TD*%
D12*
%TO.P,D4,1,K*%
%TO.N,/ROW1*%
X111726499Y-81834044D03*
D13*
%TO.P,D4,2,A*%
%TO.N,Net-(D4-A)*%
X115536499Y-75234930D03*
%TD*%
D14*
%TO.P,D32,1,K*%
%TO.N,/ROW4*%
X195834568Y-142103023D03*
D15*
%TO.P,D32,2,A*%
%TO.N,Net-(D32-A)*%
X192024568Y-135503909D03*
%TD*%
D14*
%TO.P,D9,1,K*%
%TO.N,/ROW1*%
X233251803Y-54509319D03*
D15*
%TO.P,D9,2,A*%
%TO.N,Net-(D9-A)*%
X229441803Y-47910205D03*
%TD*%
D12*
%TO.P,D12,1,K*%
%TO.N,/ROW2*%
X69204731Y-79281476D03*
D13*
%TO.P,D12,2,A*%
%TO.N,Net-(D12-A)*%
X73014731Y-72682362D03*
%TD*%
D17*
%TO.N,/ROW4*%
X156444950Y-148232813D02*
X156444950Y-145973800D01*
X186728216Y-151209375D02*
X159421512Y-151209375D01*
X195834568Y-142103023D02*
X186728216Y-151209375D01*
X159421512Y-151209375D02*
X156444950Y-148232813D01*
%TO.N,Net-(D32-A)*%
X192024568Y-135503909D02*
X187947467Y-135503909D01*
X187947467Y-135503909D02*
X186334393Y-137116983D01*
%TO.N,/ROW2*%
X155862354Y-107820000D02*
X156444950Y-107820000D01*
X139857354Y-123825000D02*
X155862354Y-107820000D01*
X118698083Y-119888708D02*
X122634375Y-123825000D01*
X118698083Y-107856476D02*
X118698083Y-119888708D01*
X122634375Y-123825000D02*
X139857354Y-123825000D01*
%TO.N,/ROW3*%
X153958750Y-110360000D02*
X156444950Y-110360000D01*
X139964974Y-124353776D02*
X153958750Y-110360000D01*
X109173083Y-124353776D02*
X139964974Y-124353776D01*
%TO.N,/ROW1*%
X158353125Y-104775000D02*
X158353125Y-105280000D01*
X159572714Y-81106164D02*
X159543750Y-81135128D01*
X158916855Y-80450305D02*
X159572714Y-81106164D01*
X159543750Y-81135128D02*
X159543750Y-103584375D01*
X139133022Y-80450305D02*
X158916855Y-80450305D01*
X164991875Y-105280000D02*
X158353125Y-105280000D01*
X159543750Y-103584375D02*
X158353125Y-104775000D01*
X158353125Y-105280000D02*
X156444950Y-105280000D01*
X128224283Y-91359044D02*
X139133022Y-80450305D01*
%TO.N,/ROW3*%
X163938125Y-110360000D02*
X156444950Y-110360000D01*
X175021875Y-121443750D02*
X163938125Y-110360000D01*
X197443841Y-121443750D02*
X175021875Y-121443750D01*
X202807352Y-116080239D02*
X197443841Y-121443750D01*
%TO.N,/ROW2*%
X185045071Y-107820000D02*
X156444950Y-107820000D01*
X193283452Y-99581619D02*
X185045071Y-107820000D01*
%TO.N,/ROW1*%
X183758451Y-86513424D02*
X164991875Y-105280000D01*
X183758451Y-83084319D02*
X183758451Y-86513424D01*
%TO.N,/ROW4*%
X156444950Y-145973800D02*
X152041354Y-150377396D01*
X152041354Y-150377396D02*
X116147067Y-150377396D01*
X156444950Y-112900000D02*
X156444950Y-145973800D01*
%TO.N,/ROW3*%
X209780136Y-116080239D02*
X202807352Y-116080239D01*
X219305136Y-106555239D02*
X209780136Y-116080239D01*
X226277920Y-106555239D02*
X219305136Y-106555239D01*
X235802920Y-97030239D02*
X226277920Y-106555239D01*
X242775704Y-97030239D02*
X235802920Y-97030239D01*
X252300704Y-87505239D02*
X242775704Y-97030239D01*
X268798488Y-77980239D02*
X259273488Y-87505239D01*
X259273488Y-87505239D02*
X252300704Y-87505239D01*
%TO.N,/ROW2*%
X200256236Y-99581619D02*
X193283452Y-99581619D01*
X209781236Y-90056619D02*
X200256236Y-99581619D01*
X216754020Y-90056619D02*
X209781236Y-90056619D01*
X226279020Y-80531619D02*
X216754020Y-90056619D01*
X233251804Y-80531619D02*
X226279020Y-80531619D01*
X242776804Y-71006619D02*
X233251804Y-80531619D01*
X249749588Y-71006619D02*
X242776804Y-71006619D01*
X259274588Y-61481619D02*
X249749588Y-71006619D01*
%TO.N,/ROW1*%
X190731235Y-83084319D02*
X183758451Y-83084319D01*
X200256235Y-73559319D02*
X190731235Y-83084319D01*
X207229019Y-73559319D02*
X200256235Y-73559319D01*
X216754019Y-64034319D02*
X207229019Y-73559319D01*
X223726803Y-64034319D02*
X216754019Y-64034319D01*
X233251803Y-54509319D02*
X223726803Y-64034319D01*
X240224587Y-54509319D02*
X233251803Y-54509319D01*
X249749587Y-44984319D02*
X240224587Y-54509319D01*
%TO.N,/ROW3*%
X102200299Y-124353776D02*
X109173083Y-124353776D01*
X92675299Y-114828776D02*
X102200299Y-124353776D01*
X85702515Y-114828776D02*
X92675299Y-114828776D01*
X76177515Y-105303776D02*
X85702515Y-114828776D01*
X69204731Y-105303776D02*
X76177515Y-105303776D01*
X59679731Y-95778776D02*
X69204731Y-105303776D01*
X52706947Y-95778776D02*
X59679731Y-95778776D01*
X43181947Y-86253776D02*
X52706947Y-95778776D01*
%TO.N,/ROW2*%
X102200299Y-98331476D02*
X111725299Y-107856476D01*
X111725299Y-107856476D02*
X118698083Y-107856476D01*
X95227515Y-98331476D02*
X102200299Y-98331476D01*
X85702515Y-88806476D02*
X95227515Y-98331476D01*
X78729731Y-88806476D02*
X85702515Y-88806476D01*
X69204731Y-79281476D02*
X78729731Y-88806476D01*
X62231947Y-79281476D02*
X69204731Y-79281476D01*
X52706947Y-69756476D02*
X62231947Y-79281476D01*
%TO.N,/ROW1*%
X121251499Y-91359044D02*
X128224283Y-91359044D01*
X111726499Y-81834044D02*
X121251499Y-91359044D01*
X104753715Y-81834044D02*
X111726499Y-81834044D01*
X95228715Y-72309044D02*
X104753715Y-81834044D01*
X88255931Y-72309044D02*
X95228715Y-72309044D01*
X78730931Y-62784044D02*
X88255931Y-72309044D01*
X71758147Y-62784044D02*
X78730931Y-62784044D01*
X62233147Y-53259044D02*
X71758147Y-62784044D01*
%TO.N,Net-(D30-A)*%
X260911387Y-71381125D02*
X259298313Y-72994199D01*
X264988488Y-71381125D02*
X260911387Y-71381125D01*
%TO.N,Net-(D29-A)*%
X244413603Y-80906125D02*
X242800529Y-82519199D01*
X248490704Y-80906125D02*
X244413603Y-80906125D01*
%TO.N,Net-(D28-A)*%
X227915819Y-90431125D02*
X226302745Y-92044199D01*
X231992920Y-90431125D02*
X227915819Y-90431125D01*
%TO.N,Net-(D27-A)*%
X215495136Y-99956125D02*
X211418035Y-99956125D01*
X211418035Y-99956125D02*
X209804961Y-101569199D01*
%TO.N,Net-(D26-A)*%
X194920251Y-109481125D02*
X193307177Y-111094199D01*
X198997352Y-109481125D02*
X194920251Y-109481125D01*
%TO.N,Net-(D16-A)*%
X185396351Y-92982505D02*
X183783277Y-94595579D01*
X189473452Y-92982505D02*
X185396351Y-92982505D01*
%TO.N,Net-(D17-A)*%
X201894135Y-83457505D02*
X200281061Y-85070579D01*
X205971236Y-83457505D02*
X201894135Y-83457505D01*
%TO.N,Net-(D18-A)*%
X218391919Y-73932505D02*
X216778845Y-75545579D01*
X222469020Y-73932505D02*
X218391919Y-73932505D01*
%TO.N,Net-(D19-A)*%
X238966804Y-64407505D02*
X234889703Y-64407505D01*
X234889703Y-64407505D02*
X233276629Y-66020579D01*
%TO.N,Net-(D20-A)*%
X251387487Y-54882505D02*
X249774413Y-56495579D01*
X255464588Y-54882505D02*
X251387487Y-54882505D01*
%TO.N,Net-(D10-A)*%
X241862487Y-38385205D02*
X240249413Y-39998279D01*
X245939587Y-38385205D02*
X241862487Y-38385205D01*
%TO.N,Net-(D9-A)*%
X225364703Y-47910205D02*
X223751629Y-49523279D01*
X229441803Y-47910205D02*
X225364703Y-47910205D01*
%TO.N,Net-(D8-A)*%
X208866919Y-57435205D02*
X207253845Y-59048279D01*
X212944019Y-57435205D02*
X208866919Y-57435205D01*
%TO.N,Net-(D7-A)*%
X192369135Y-66960205D02*
X190756061Y-68573279D01*
X196446235Y-66960205D02*
X192369135Y-66960205D01*
%TO.N,Net-(D6-A)*%
X179948451Y-76485205D02*
X175871351Y-76485205D01*
X175871351Y-76485205D02*
X174258277Y-78098279D01*
%TO.N,Net-(D31-A)*%
X115835768Y-139656983D02*
X115715017Y-139656983D01*
X119957067Y-143778282D02*
X115835768Y-139656983D01*
%TO.N,Net-(D24-A)*%
X92364000Y-104108363D02*
X92243249Y-104108363D01*
X96485299Y-108229662D02*
X92364000Y-104108363D01*
%TO.N,Net-(D25-A)*%
X108861784Y-113633363D02*
X108741033Y-113633363D01*
X112983083Y-117754662D02*
X108861784Y-113633363D01*
%TO.N,Net-(D15-A)*%
X122387332Y-101257362D02*
X122508083Y-101257362D01*
X118266033Y-97136063D02*
X122387332Y-101257362D01*
%TO.N,Net-(D14-A)*%
X105889548Y-91732362D02*
X106010299Y-91732362D01*
X101768249Y-87611063D02*
X105889548Y-91732362D01*
%TO.N,Net-(D23-A)*%
X75866216Y-94583363D02*
X75745465Y-94583363D01*
X79987515Y-98704662D02*
X75866216Y-94583363D01*
%TO.N,Net-(D13-A)*%
X85270465Y-78086063D02*
X89391764Y-82207362D01*
X89391764Y-82207362D02*
X89512515Y-82207362D01*
%TO.N,Net-(D12-A)*%
X68893432Y-68561063D02*
X68772681Y-68561063D01*
X73014731Y-72682362D02*
X68893432Y-68561063D01*
%TO.N,Net-(D22-A)*%
X63368980Y-89179662D02*
X63489731Y-89179662D01*
X59247681Y-85058363D02*
X63368980Y-89179662D01*
%TO.N,Net-(D21-A)*%
X46871196Y-79654662D02*
X46991947Y-79654662D01*
X42749897Y-75533363D02*
X46871196Y-79654662D01*
%TO.N,Net-(D11-A)*%
X56396196Y-63157362D02*
X56516947Y-63157362D01*
X52274897Y-59036063D02*
X56396196Y-63157362D01*
%TO.N,Net-(D5-A)*%
X131913532Y-84759930D02*
X132034283Y-84759930D01*
X127792233Y-80638631D02*
X131913532Y-84759930D01*
%TO.N,Net-(D4-A)*%
X115415748Y-75234930D02*
X115536499Y-75234930D01*
X111294449Y-71113631D02*
X115415748Y-75234930D01*
%TO.N,Net-(D3-A)*%
X98917964Y-65709930D02*
X99038715Y-65709930D01*
X94796665Y-61588631D02*
X98917964Y-65709930D01*
%TO.N,Net-(D2-A)*%
X82420180Y-56184930D02*
X82540931Y-56184930D01*
X78298881Y-52063631D02*
X82420180Y-56184930D01*
%TO.N,Net-(D1-A)*%
X65922396Y-46659930D02*
X66043147Y-46659930D01*
X61801097Y-42538631D02*
X65922396Y-46659930D01*
%TD*%
M02*
