%TF.GenerationSoftware,KiCad,Pcbnew,7.0.8*%
%TF.CreationDate,2023-12-04T03:58:51-05:00*%
%TF.ProjectId,plate_pcb,706c6174-655f-4706-9362-2e6b69636164,rev?*%
%TF.SameCoordinates,Original*%
%TF.FileFunction,Profile,NP*%
%FSLAX46Y46*%
G04 Gerber Fmt 4.6, Leading zero omitted, Abs format (unit mm)*
G04 Created by KiCad (PCBNEW 7.0.8) date 2023-12-04 03:58:51*
%MOMM*%
%LPD*%
G01*
G04 APERTURE LIST*
%TA.AperFunction,Profile*%
%ADD10C,0.100000*%
%TD*%
%TA.AperFunction,Profile*%
%ADD11C,0.200000*%
%TD*%
%TA.AperFunction,Profile*%
%ADD12C,0.050000*%
%TD*%
G04 APERTURE END LIST*
D10*
X176302388Y-74811319D02*
X247911916Y-33471848D01*
X61798370Y-33438721D02*
X133415127Y-74803043D01*
X169071076Y-78986319D02*
G75*
G03*
X169620113Y-76937281I-749986J1299034D01*
G01*
X172531531Y-72407210D02*
G75*
G03*
X171869961Y-73031638I-188302J-463172D01*
G01*
X174253351Y-74262281D02*
G75*
G03*
X176302388Y-74811318I1299065J750105D01*
G01*
X169207614Y-76222810D02*
X169620114Y-76937281D01*
X173840849Y-73547811D02*
G75*
G03*
X172531531Y-72407211I-2316467J-1337325D01*
G01*
X174253350Y-74262281D02*
X173840850Y-73547810D01*
X169746041Y-74257883D02*
G75*
G03*
X168874486Y-74518607I-376271J-329282D01*
G01*
X169746039Y-74257884D02*
G75*
G03*
X171869961Y-73031638I940692J823167D01*
G01*
X168874487Y-74518607D02*
G75*
G03*
X169207614Y-76222810I2649841J-366685D01*
G01*
X133415127Y-74803044D02*
G75*
G03*
X135464165Y-74254005I750003J1299025D01*
G01*
X140843030Y-74510331D02*
G75*
G03*
X139971474Y-74249608I-495270J-68511D01*
G01*
X140097402Y-76929005D02*
G75*
G03*
X140646439Y-78978042I1299142J-749972D01*
G01*
X135876665Y-73539534D02*
X135464165Y-74254005D01*
X140509900Y-76214534D02*
G75*
G03*
X140843029Y-74510331I-2316391J1337457D01*
G01*
X140097401Y-76929005D02*
X140509901Y-76214534D01*
X137847555Y-73023362D02*
G75*
G03*
X137185984Y-72398936I-473302J161219D01*
G01*
X137847553Y-73023361D02*
G75*
G03*
X139971474Y-74249608I1183230J-403079D01*
G01*
X137185984Y-72398936D02*
G75*
G03*
X135876665Y-73539534I1007363J-2478172D01*
G01*
X213891235Y-119124072D02*
X276494633Y-82998508D01*
X213891235Y-119124072D02*
G75*
G03*
X213342198Y-121173110I749986J-1299034D01*
G01*
X210430780Y-125703181D02*
G75*
G03*
X211092350Y-125078753I188302J463172D01*
G01*
X208708960Y-123848110D02*
G75*
G03*
X206659923Y-123299073I-1299065J-750105D01*
G01*
X213754697Y-121887581D02*
X213342197Y-121173110D01*
X209121462Y-124562580D02*
G75*
G03*
X210430780Y-125703180I2316467J1337325D01*
G01*
X208708961Y-123848110D02*
X209121461Y-124562581D01*
X213216270Y-123852508D02*
G75*
G03*
X214087825Y-123591784I376271J329282D01*
G01*
X213216272Y-123852507D02*
G75*
G03*
X211092350Y-125078753I-940692J-823167D01*
G01*
X214087825Y-123591784D02*
G75*
G03*
X213754696Y-121887581I-2649842J366684D01*
G01*
X95844256Y-119141968D02*
X33233892Y-82994376D01*
X103075568Y-123316967D02*
G75*
G03*
X101026530Y-123866006I-750003J-1299025D01*
G01*
X95647665Y-123609680D02*
G75*
G03*
X96519221Y-123870403I495270J68511D01*
G01*
X96393293Y-121191006D02*
G75*
G03*
X95844256Y-119141969I-1299142J749972D01*
G01*
X100614030Y-124580477D02*
X101026530Y-123866006D01*
X95980795Y-121905477D02*
G75*
G03*
X95647666Y-123609680I2316391J-1337457D01*
G01*
X96393294Y-121191006D02*
X95980794Y-121905477D01*
X98643140Y-125096649D02*
G75*
G03*
X99304711Y-125721075I473302J-161219D01*
G01*
X98643142Y-125096650D02*
G75*
G03*
X96519221Y-123870403I-1183230J403079D01*
G01*
X99304711Y-125721075D02*
G75*
G03*
X100614030Y-124580477I-1007363J2478172D01*
G01*
X104004333Y-126788322D02*
G75*
G03*
X103075568Y-123316969I-2198833J1271622D01*
G01*
X97014386Y-138874307D02*
X104004294Y-126788300D01*
X150687797Y-160138847D02*
X129427957Y-160142831D01*
X180297638Y-160134861D02*
X159037797Y-160138847D01*
X152187798Y-161638847D02*
G75*
G03*
X150687797Y-160138847I-1499990J10D01*
G01*
X156089044Y-163896310D02*
G75*
G03*
X156974193Y-164106294I490489J96983D01*
G01*
X159037797Y-160138847D02*
G75*
G03*
X157537797Y-161638847I77J-1500077D01*
G01*
X152187797Y-161638847D02*
X152187797Y-162463847D01*
X156974193Y-164106294D02*
G75*
G03*
X157537797Y-162463847I-2111180J1642372D01*
G01*
X157537797Y-162463847D02*
X157537797Y-161638847D01*
X152751402Y-164106293D02*
G75*
G03*
X153636552Y-163896310I394649J307014D01*
G01*
X156089043Y-163896310D02*
G75*
G03*
X153636553Y-163896310I-1226245J-242538D01*
G01*
X152187797Y-162463847D02*
G75*
G03*
X152751401Y-164106294I2675092J32D01*
G01*
D11*
X187351980Y-108970726D02*
G75*
G03*
X188035040Y-109153712I433020J250026D01*
G01*
X70288700Y-56897897D02*
G75*
G03*
X70471744Y-57580928I433000J-250003D01*
G01*
X127074567Y-141817962D02*
X120074567Y-153942318D01*
X60290947Y-36114585D02*
X53790947Y-47372915D01*
X209474167Y-81187369D02*
X215974167Y-92445699D01*
X67263731Y-62137369D02*
X60763731Y-73395699D01*
X93942312Y-93128712D02*
X105200642Y-99628712D01*
D10*
X56186359Y-38099994D02*
G75*
G03*
X55637331Y-36050962I-1299059J749994D01*
G01*
X252112426Y-31038353D02*
X247911916Y-33471848D01*
D11*
X235496951Y-88160153D02*
X241996951Y-99418483D01*
X126329223Y-140232937D02*
X119829223Y-151491267D01*
X138406439Y-81214585D02*
X131906439Y-92472915D01*
X116757083Y-90712369D02*
X110257083Y-101970699D01*
X126965114Y-74031541D02*
G75*
G03*
X126282083Y-74214585I-250014J-432959D01*
G01*
X194324778Y-82947934D02*
G75*
G03*
X195007824Y-83130928I433022J250034D01*
G01*
X197532832Y-87504369D02*
G75*
G03*
X197349812Y-88187369I250068J-433031D01*
G01*
X126329176Y-140232910D02*
G75*
G03*
X126146210Y-139549924I-432976J250010D01*
G01*
X60763719Y-73395692D02*
G75*
G03*
X60946744Y-74078712I432981J-250008D01*
G01*
D10*
X275263854Y-75807728D02*
G75*
G03*
X277312886Y-76356771I1299046J750028D01*
G01*
D11*
X112459522Y-133379962D02*
X105459522Y-145504318D01*
X190560030Y-113527122D02*
G75*
G03*
X190377027Y-114210153I249870J-432978D01*
G01*
X77444528Y-83603712D02*
X88702858Y-90103712D01*
X215791146Y-93128698D02*
G75*
G03*
X215974166Y-92445699I-249946J432998D01*
G01*
X230345379Y-69137369D02*
X236845379Y-80395699D01*
D10*
X53782257Y-34329145D02*
G75*
G03*
X54922860Y-35638462I2478143J1007345D01*
G01*
X279992263Y-76482675D02*
G75*
G03*
X281218529Y-78606618I823137J-940725D01*
G01*
D11*
X117440096Y-90529356D02*
X128698426Y-97029356D01*
X119965096Y-86155928D02*
X131223426Y-92655928D01*
X256368163Y-76110153D02*
X262868163Y-87368483D01*
X119146197Y-151674302D02*
G75*
G03*
X119829223Y-151491267I250003J433002D01*
G01*
X60946744Y-74078712D02*
X72205074Y-80578712D01*
D10*
X61798370Y-33438721D02*
X57597860Y-31005226D01*
D11*
X210822581Y-73422923D02*
G75*
G03*
X211505608Y-73605928I433019J250023D01*
G01*
X190560040Y-113527140D02*
X201818370Y-107027140D01*
X195528572Y-133232953D02*
G75*
G03*
X194845586Y-133049925I-432972J-249847D01*
G01*
X67736558Y-99418508D02*
G75*
G03*
X67919528Y-100101496I433042J-249992D01*
G01*
X102858665Y-104685159D02*
G75*
G03*
X102675642Y-104002141I-433165J249959D01*
G01*
X86786489Y-66422900D02*
G75*
G03*
X86969528Y-67105928I433011J-250000D01*
G01*
X218999167Y-97685153D02*
X225499167Y-108943483D01*
X247053392Y-97076496D02*
X258311722Y-90576496D01*
X114204867Y-133232937D02*
X107704867Y-144491267D01*
X204532824Y-99628712D02*
X215791154Y-93128712D01*
X34923960Y-81051496D02*
X46182290Y-87551496D01*
X183404244Y-140232937D02*
X189904244Y-151491267D01*
X221003383Y-51956556D02*
G75*
G03*
X220820379Y-52639585I250117J-433044D01*
G01*
X183451383Y-74214585D02*
X189951383Y-85472915D01*
X197532824Y-87504356D02*
X208791154Y-81004356D01*
X237528392Y-80578712D02*
X248786722Y-74078712D01*
X107887880Y-145174280D02*
X119146210Y-151674280D01*
X232944735Y-45639585D02*
X239444735Y-56897915D01*
X100942312Y-81004356D02*
X112200642Y-87504356D01*
X110257117Y-101970719D02*
G75*
G03*
X110440096Y-102653712I433083J-249981D01*
G01*
D10*
X128156872Y-159802139D02*
X97942454Y-142345259D01*
D11*
X88702868Y-90103694D02*
G75*
G03*
X89385871Y-89920699I250032J432894D01*
G01*
X125453714Y-157625362D02*
G75*
G03*
X126136744Y-157442318I249986J433062D01*
G01*
X51448963Y-52429351D02*
G75*
G03*
X50765947Y-52612369I-249963J-433149D01*
G01*
X126965096Y-74031572D02*
X138223426Y-80531572D01*
X222763934Y-67105922D02*
G75*
G03*
X222946950Y-66422915I-250034J433022D01*
G01*
X74236515Y-88160153D02*
X67736515Y-99418483D01*
X128881439Y-97712369D02*
X122381439Y-108970699D01*
X256551154Y-75427102D02*
G75*
G03*
X256368164Y-76110153I249946J-432998D01*
G01*
D10*
X54406689Y-33667568D02*
G75*
G03*
X53782262Y-34329143I-161189J-473332D01*
G01*
D11*
X84444528Y-71479356D02*
X95702858Y-77979356D01*
X220820379Y-52639585D02*
X227320379Y-63897915D01*
X112459477Y-133379936D02*
G75*
G03*
X112276510Y-132696951I-432877J250036D01*
G01*
D10*
X32415640Y-76352639D02*
X31701169Y-75940139D01*
D11*
X95885921Y-78662398D02*
G75*
G03*
X95702858Y-77979356I-433021J249998D01*
G01*
X105200682Y-99628643D02*
G75*
G03*
X105883655Y-99445699I250018J432943D01*
G01*
X100732137Y-118468514D02*
G75*
G03*
X100915096Y-119151496I433063J-249986D01*
G01*
X247026176Y-58929356D02*
X258284506Y-52429356D01*
X86360876Y-95160156D02*
G75*
G03*
X86177858Y-94477141I-433176J249956D01*
G01*
D10*
X57597876Y-31005199D02*
G75*
G03*
X55893657Y-30672099I-1337476J-2316701D01*
G01*
D11*
X178510040Y-92655928D02*
X189768370Y-86155928D01*
D10*
X211783771Y-142336321D02*
G75*
G03*
X212712900Y-138867231I-1270771J2199321D01*
G01*
X28509996Y-78602486D02*
G75*
G03*
X29736242Y-76478566I403084J1183226D01*
G01*
D11*
X126282083Y-74214585D02*
X119782083Y-85472915D01*
X207057824Y-104002140D02*
X218316154Y-97502140D01*
X127757569Y-141634970D02*
G75*
G03*
X127074568Y-141817962I-249969J-433130D01*
G01*
X221030608Y-90103712D02*
X232288938Y-83603712D01*
D10*
X279731563Y-75611117D02*
G75*
G03*
X278027357Y-75944271I-366663J-2649783D01*
G01*
D11*
X240053373Y-84952107D02*
G75*
G03*
X239870379Y-85635153I249927J-432993D01*
G01*
X225316157Y-109626501D02*
G75*
G03*
X225499166Y-108943483I-249957J433001D01*
G01*
X210153098Y-142687313D02*
G75*
G03*
X210336122Y-142004318I-249998J433013D01*
G01*
X133136745Y-145317962D02*
X126136745Y-157442318D01*
X51421744Y-90576496D02*
X62680074Y-97076496D01*
X180852028Y-97712369D02*
X187352028Y-108970699D01*
X95675679Y-116126432D02*
G75*
G03*
X96358655Y-115943483I250021J432932D01*
G01*
X229872559Y-106418504D02*
G75*
G03*
X230555608Y-106601496I433041J250104D01*
G01*
X177826975Y-92472945D02*
G75*
G03*
X178510040Y-92655928I433025J250045D01*
G01*
X246843163Y-59612369D02*
X253343163Y-70870699D01*
D10*
X28509999Y-78602475D02*
G75*
G03*
X27885570Y-79264056I-161199J-473325D01*
G01*
X254072955Y-36084089D02*
X254787426Y-35671589D01*
D11*
X176596721Y-145317962D02*
X183596721Y-157442318D01*
X51448960Y-52429356D02*
X62707290Y-58929356D01*
X228003392Y-64080928D02*
X239261722Y-57580928D01*
X202501383Y-107210153D02*
X209001383Y-118468483D01*
X53365303Y-76110153D02*
X46865303Y-87368483D01*
X189768372Y-86155932D02*
G75*
G03*
X189951383Y-85472915I-250072J433032D01*
G01*
D10*
X180297638Y-160134839D02*
G75*
G03*
X181567937Y-159794162I-238J2539539D01*
G01*
D11*
X110440096Y-102653712D02*
X121698426Y-109153712D01*
X55707315Y-71053669D02*
G75*
G03*
X56390303Y-70870699I249985J433069D01*
G01*
X254026176Y-71053712D02*
X265284506Y-64553712D01*
X204322595Y-62164585D02*
X210822595Y-73422915D01*
X184279734Y-157625331D02*
X189475886Y-154625331D01*
X203849783Y-99445715D02*
G75*
G03*
X204532824Y-99628712I433017J250015D01*
G01*
X93969506Y-54981610D02*
G75*
G03*
X93286515Y-55164585I-250006J-432990D01*
G01*
D10*
X143820209Y-79829276D02*
X165894907Y-79836528D01*
D11*
X100259299Y-81187369D02*
X93759299Y-92445699D01*
X62680070Y-97076502D02*
G75*
G03*
X63363087Y-96893483I250030J432902D01*
G01*
X249442519Y-36114585D02*
X255942519Y-47372915D01*
X265284507Y-64553714D02*
G75*
G03*
X265467518Y-63870699I-250007J433014D01*
G01*
X237318163Y-43114585D02*
X243818163Y-54372915D01*
X204956956Y-145687331D02*
X210153109Y-142687331D01*
X107232083Y-107210153D02*
X100732083Y-118468483D01*
X232288927Y-83603693D02*
G75*
G03*
X232471951Y-82920699I-249927J432993D01*
G01*
X34740980Y-80368502D02*
G75*
G03*
X34923960Y-81051496I433020J-249998D01*
G01*
X44448960Y-64553712D02*
X55707290Y-71053712D01*
X227320353Y-63897930D02*
G75*
G03*
X228003392Y-64080927I433047J250130D01*
G01*
X171327028Y-81214585D02*
X177827028Y-92472915D01*
X239870379Y-85635153D02*
X246370379Y-96893483D01*
X189475871Y-154625305D02*
G75*
G03*
X189658899Y-153942318I-249971J433005D01*
G01*
X114725616Y-83130973D02*
G75*
G03*
X115408655Y-82947915I249984J433073D01*
G01*
X100915096Y-119151496D02*
X112173426Y-125651496D01*
X99397305Y-142004295D02*
G75*
G03*
X99580357Y-142687331I432995J-250005D01*
G01*
X62890303Y-59612369D02*
X56390303Y-70870699D01*
D10*
X54922860Y-35638462D02*
X55637331Y-36050962D01*
D11*
X67946758Y-61954332D02*
G75*
G03*
X67263731Y-62137369I-249958J-433168D01*
G01*
X77471779Y-45456511D02*
G75*
G03*
X76788731Y-45639585I-249979J-433089D01*
G01*
X230528392Y-68454356D02*
X241786722Y-61954356D01*
X183587241Y-139549898D02*
G75*
G03*
X183404243Y-140232937I249959J-433002D01*
G01*
X230528394Y-68454359D02*
G75*
G03*
X230345379Y-69137369I250106J-433041D01*
G01*
X70471744Y-57580928D02*
X81730074Y-64080928D01*
X88913113Y-52639600D02*
G75*
G03*
X88730074Y-51956572I-433013J250000D01*
G01*
X223555608Y-94477140D02*
X234813938Y-87977140D01*
X53365361Y-76110186D02*
G75*
G03*
X53182290Y-75427141I-433061J249986D01*
G01*
X241813938Y-100101496D02*
G75*
G03*
X241996951Y-99418483I-249938J432996D01*
G01*
X196876986Y-125468507D02*
G75*
G03*
X197560040Y-125651496I433014J250007D01*
G01*
X112173405Y-125651532D02*
G75*
G03*
X112856439Y-125468483I249995J433032D01*
G01*
X171510040Y-80531572D02*
X182768370Y-74031572D01*
D10*
X206659938Y-123299097D02*
G75*
G03*
X205729642Y-126768786I1269362J-2199903D01*
G01*
D11*
X106397345Y-129879962D02*
X99397345Y-142004318D01*
X98227871Y-73605905D02*
G75*
G03*
X98910871Y-73422915I250029J432905D01*
G01*
X258311719Y-90576491D02*
G75*
G03*
X258494735Y-89893483I-249919J432991D01*
G01*
X183587256Y-139549924D02*
X194845586Y-133049924D01*
X235496920Y-88160171D02*
G75*
G03*
X234813938Y-87977141I-433020J-250029D01*
G01*
D10*
X254077374Y-31576803D02*
G75*
G03*
X255303598Y-33700699I823126J-940697D01*
G01*
D11*
X57738731Y-78635153D02*
X51238731Y-89893483D01*
X255759496Y-48055911D02*
G75*
G03*
X255942518Y-47372915I-249996J433011D01*
G01*
X127757580Y-141634950D02*
X132953732Y-144634950D01*
X181035051Y-97029374D02*
G75*
G03*
X180852028Y-97712369I250049J-433026D01*
G01*
X176779729Y-144634942D02*
G75*
G03*
X176596721Y-145317962I250171J-433058D01*
G01*
X239261715Y-57580917D02*
G75*
G03*
X239444734Y-56897915I-250015J433017D01*
G01*
X190587256Y-151674280D02*
X201845586Y-145174280D01*
X216446951Y-55164585D02*
X222946951Y-66422915D01*
X41923997Y-68927076D02*
G75*
G03*
X41240947Y-69110153I-249997J-433024D01*
G01*
X58421744Y-78452140D02*
X69680074Y-84952140D01*
X121698408Y-109153743D02*
G75*
G03*
X122381439Y-108970699I249992J433043D01*
G01*
X268492495Y-69110167D02*
G75*
G03*
X267809506Y-68927140I-432995J-249933D01*
G01*
X67919528Y-100101496D02*
X79177858Y-106601496D01*
X188007821Y-71006566D02*
G75*
G03*
X187824812Y-71689585I250079J-433034D01*
G01*
X197273944Y-133379962D02*
X204273944Y-145504318D01*
X112383655Y-88187369D02*
X105883655Y-99445699D01*
X195528599Y-133232937D02*
X202028599Y-144491267D01*
X104776507Y-145687336D02*
G75*
G03*
X105459522Y-145504318I249993J433036D01*
G01*
X112383710Y-88187401D02*
G75*
G03*
X112200642Y-87504356I-433010J250001D01*
G01*
X232944714Y-45639597D02*
G75*
G03*
X232261722Y-45456572I-433014J-250003D01*
G01*
X203336122Y-129879962D02*
X210336122Y-142004318D01*
X220347555Y-89920722D02*
G75*
G03*
X221030608Y-90103711I433045J250122D01*
G01*
X197456956Y-132696950D02*
X202653109Y-129696950D01*
X242469735Y-62137369D02*
X248969735Y-73395699D01*
D10*
X140646435Y-78978050D02*
G75*
G03*
X143820209Y-79829276I3175865J5498850D01*
G01*
D11*
X107915096Y-107027140D02*
X119173426Y-113527140D01*
X58421723Y-78452176D02*
G75*
G03*
X57738732Y-78635153I-250023J-432924D01*
G01*
X237501176Y-42431572D02*
X248759506Y-35931572D01*
D10*
X254787439Y-35671611D02*
G75*
G03*
X255928025Y-34362270I-1337539J2316611D01*
G01*
D11*
X120257580Y-154625331D02*
X125453732Y-157625331D01*
X65232318Y-54555880D02*
G75*
G03*
X65915303Y-54372915I249982J433080D01*
G01*
X107080361Y-129696943D02*
G75*
G03*
X106397344Y-129879962I-249961J-433157D01*
G01*
X84444503Y-71479399D02*
G75*
G03*
X83761515Y-71662369I-250003J-433001D01*
G01*
X274809500Y-81051486D02*
G75*
G03*
X274992519Y-80368483I-249900J432986D01*
G01*
X114887880Y-133049924D02*
X126146210Y-139549924D01*
X263551176Y-87551496D02*
X274809506Y-81051496D01*
X208818376Y-119151506D02*
G75*
G03*
X209001382Y-118468483I-249976J433006D01*
G01*
X74919528Y-87977140D02*
X86177858Y-94477140D01*
D12*
X34464678Y-75803601D02*
X56186369Y-38100000D01*
D11*
X214057824Y-116126496D02*
X225316154Y-109626496D01*
X81730076Y-64080924D02*
G75*
G03*
X82413087Y-63897915I250024J432924D01*
G01*
X197560040Y-125651496D02*
X208818370Y-119151496D01*
X268492519Y-69110153D02*
X274992519Y-80368483D01*
X218999117Y-97685182D02*
G75*
G03*
X218316154Y-97502141I-433017J-250018D01*
G01*
X240053392Y-84952140D02*
X251311722Y-78452140D01*
X51238769Y-89893505D02*
G75*
G03*
X51421744Y-90576496I433031J-249995D01*
G01*
X223555592Y-94477112D02*
G75*
G03*
X223372595Y-95160153I249908J-432988D01*
G01*
X187824811Y-71689585D02*
X194324811Y-82947915D01*
X183451336Y-74214612D02*
G75*
G03*
X182768370Y-74031573I-433036J-250088D01*
G01*
X236845358Y-80395711D02*
G75*
G03*
X237528392Y-80578711I433042J250111D01*
G01*
X88913087Y-52639585D02*
X82413087Y-63897915D01*
D10*
X255928003Y-34362261D02*
G75*
G03*
X255303598Y-33700700I-463203J188261D01*
G01*
D11*
X79177865Y-106601483D02*
G75*
G03*
X79860871Y-106418483I250035J432883D01*
G01*
X207057811Y-104002117D02*
G75*
G03*
X206874811Y-104685153I249889J-432983D01*
G01*
X91417332Y-97502106D02*
G75*
G03*
X90734299Y-97685153I-250032J-432894D01*
G01*
D10*
X29996969Y-75607033D02*
G75*
G03*
X29736243Y-76478565I68531J-495267D01*
G01*
D11*
X79388132Y-69137395D02*
G75*
G03*
X79205074Y-68454356I-433032J249995D01*
G01*
D10*
X54406691Y-33667562D02*
G75*
G03*
X55632933Y-31543654I403079J1183222D01*
G01*
D11*
X41923960Y-68927140D02*
X53182290Y-75427140D01*
X103467312Y-76630928D02*
X114725642Y-83130928D01*
X203336091Y-129879980D02*
G75*
G03*
X202653109Y-129696950I-432991J-249920D01*
G01*
X128881380Y-97712335D02*
G75*
G03*
X128698426Y-97029356I-432880J250035D01*
G01*
X225971916Y-71662389D02*
G75*
G03*
X225288938Y-71479356I-433016J-250011D01*
G01*
X91417312Y-97502140D02*
X102675642Y-104002140D01*
X95885871Y-78662369D02*
X89385871Y-89920699D01*
X258967519Y-52612369D02*
X265467519Y-63870699D01*
X214030613Y-77979364D02*
G75*
G03*
X213847595Y-78662369I250087J-433036D01*
G01*
X72415303Y-43114585D02*
X65915303Y-54372915D01*
X262868111Y-87368513D02*
G75*
G03*
X263551176Y-87551495I432989J249913D01*
G01*
X77471744Y-45456572D02*
X88730074Y-51956572D01*
X62890256Y-59612342D02*
G75*
G03*
X62707290Y-58929356I-432856J250042D01*
G01*
X188035040Y-109153712D02*
X199293370Y-102653712D01*
D10*
X211783753Y-142336290D02*
X181567937Y-159794163D01*
D11*
X221003392Y-51956572D02*
X232261722Y-45456572D01*
X110467301Y-64506591D02*
G75*
G03*
X109784299Y-64689585I-250001J-433009D01*
G01*
X204273903Y-145504342D02*
G75*
G03*
X204956956Y-145687331I432997J249942D01*
G01*
X183596676Y-157442344D02*
G75*
G03*
X184279734Y-157625330I433024J250044D01*
G01*
X119356439Y-114210153D02*
X112856439Y-125468483D01*
X256551176Y-75427140D02*
X267809506Y-68927140D01*
D10*
X55893662Y-30672137D02*
G75*
G03*
X55632933Y-31543653I68538J-495263D01*
G01*
D11*
X60973960Y-35931572D02*
X72232290Y-42431572D01*
X53790910Y-47372894D02*
G75*
G03*
X53973960Y-48055928I432990J-250006D01*
G01*
X86360871Y-95160153D02*
X79860871Y-106418483D01*
X199293365Y-102653703D02*
G75*
G03*
X199476382Y-101970699I-249965J433003D01*
G01*
D10*
X281842991Y-79268203D02*
G75*
G03*
X281218529Y-78606618I-463191J188303D01*
G01*
X253816626Y-30705245D02*
G75*
G03*
X252112426Y-31038353I-366726J-2649755D01*
G01*
D11*
X107080357Y-129696950D02*
X112276510Y-132696950D01*
X251994735Y-78635153D02*
X258494735Y-89893483D01*
X213374788Y-115943496D02*
G75*
G03*
X214057824Y-116126496I433012J249996D01*
G01*
X138406480Y-81214609D02*
G75*
G03*
X138223426Y-80531572I-432980J250009D01*
G01*
X258967490Y-52612386D02*
G75*
G03*
X258284506Y-52429356I-432990J-249914D01*
G01*
X93759328Y-92445716D02*
G75*
G03*
X93942312Y-93128712I433072J-249984D01*
G01*
D10*
X205729641Y-126768786D02*
X212712901Y-138867231D01*
D11*
X253343106Y-70870732D02*
G75*
G03*
X254026176Y-71053711I432994J249932D01*
G01*
X93286515Y-55164585D02*
X86786515Y-66422915D01*
X251994692Y-78635178D02*
G75*
G03*
X251311722Y-78452140I-432992J-249922D01*
G01*
X197456956Y-132696949D02*
G75*
G03*
X197273944Y-133379962I250144J-433051D01*
G01*
D10*
X97014345Y-138874283D02*
G75*
G03*
X97942454Y-142345258I2198855J-1271617D01*
G01*
D11*
X201845588Y-145174283D02*
G75*
G03*
X202028599Y-144491267I-249888J432983D01*
G01*
X247026175Y-58929354D02*
G75*
G03*
X246843163Y-59612369I250125J-433046D01*
G01*
X103284278Y-75947903D02*
G75*
G03*
X103467312Y-76630928I433022J-249997D01*
G01*
X107704913Y-144491294D02*
G75*
G03*
X107887880Y-145174279I432987J-250006D01*
G01*
X76788731Y-45639585D02*
X70288731Y-56897915D01*
D10*
X280702371Y-80577531D02*
G75*
G03*
X281842954Y-79268188I-1337571J2316631D01*
G01*
D11*
X213847595Y-78662369D02*
X220347595Y-89920699D01*
X244501176Y-54555928D02*
X255759506Y-48055928D01*
X110467312Y-64506572D02*
X121725642Y-71006572D01*
X67946744Y-61954356D02*
X79205074Y-68454356D01*
X188007824Y-71006572D02*
X199266154Y-64506572D01*
X248786708Y-74078688D02*
G75*
G03*
X248969735Y-73395699I-249908J432988D01*
G01*
X90734299Y-97685153D02*
X84234299Y-108943483D01*
X216446911Y-55164608D02*
G75*
G03*
X215763938Y-54981572I-433011J-249992D01*
G01*
X109784299Y-64689585D02*
X103284299Y-75947915D01*
X223372595Y-95160153D02*
X229872595Y-106418483D01*
X209474113Y-81187400D02*
G75*
G03*
X208791154Y-81004356I-433013J-250000D01*
G01*
X206266153Y-76630927D02*
G75*
G03*
X206449167Y-75947915I-250053J433027D01*
G01*
X199949167Y-64689585D02*
X206449167Y-75947915D01*
X107915127Y-107027087D02*
G75*
G03*
X107232083Y-107210153I-250027J-432913D01*
G01*
X181035040Y-97029356D02*
X192293370Y-90529356D01*
X133136692Y-145317931D02*
G75*
G03*
X132953732Y-144634951I-432892J250031D01*
G01*
X102858655Y-104685153D02*
X96358655Y-115943483D01*
D10*
X254077353Y-31576779D02*
G75*
G03*
X253816629Y-30705226I-329253J376279D01*
G01*
D11*
X225971951Y-71662369D02*
X232471951Y-82920699D01*
X204505608Y-61481572D02*
X215763938Y-54981572D01*
X60973966Y-35931561D02*
G75*
G03*
X60290947Y-36114585I-249966J-433139D01*
G01*
X119356486Y-114210180D02*
G75*
G03*
X119173426Y-113527141I-433086J249980D01*
G01*
X249442484Y-36114605D02*
G75*
G03*
X248759506Y-35931573I-432984J-249895D01*
G01*
X204505602Y-61481561D02*
G75*
G03*
X204322595Y-62164585I250098J-433039D01*
G01*
X192976383Y-90712369D02*
X199476383Y-101970699D01*
X176779734Y-144634950D02*
X181975886Y-141634950D01*
X237501182Y-42431583D02*
G75*
G03*
X237318163Y-43114585I250018J-433017D01*
G01*
X182658899Y-141817962D02*
X189658899Y-153942318D01*
D10*
X128156880Y-159802125D02*
G75*
G03*
X129427957Y-160142831I1270720J2199325D01*
G01*
D11*
X214030608Y-77979356D02*
X225288938Y-71479356D01*
X121908655Y-71689585D02*
X115408655Y-82947915D01*
X86969528Y-67105928D02*
X98227858Y-73605928D01*
X117440093Y-90529361D02*
G75*
G03*
X116757083Y-90712369I-249993J-433039D01*
G01*
X99580357Y-142687331D02*
X104776510Y-145687331D01*
X53973960Y-48055928D02*
X65232290Y-54555928D01*
D10*
X276494633Y-82998508D02*
X280702357Y-80577507D01*
X253523917Y-38133127D02*
X275263848Y-75807732D01*
D11*
X50765947Y-52612369D02*
X44265947Y-63870699D01*
X83761515Y-71662369D02*
X77261515Y-82920699D01*
D10*
X279992251Y-76482662D02*
G75*
G03*
X279731559Y-75611144I-329251J376262D01*
G01*
D11*
X206874811Y-104685153D02*
X213374811Y-115943483D01*
X44265930Y-63870689D02*
G75*
G03*
X44448960Y-64553712I432970J-250011D01*
G01*
X120074521Y-153942291D02*
G75*
G03*
X120257580Y-154625330I432979J-250009D01*
G01*
X242469719Y-62137378D02*
G75*
G03*
X241786722Y-61954356I-433019J-250022D01*
G01*
X131223411Y-92655954D02*
G75*
G03*
X131906439Y-92472915I249989J433054D01*
G01*
X69863087Y-85635153D02*
G75*
G03*
X69680074Y-84952141I-433187J249953D01*
G01*
X190377028Y-114210153D02*
X196877028Y-125468483D01*
X72205073Y-80578713D02*
G75*
G03*
X72888087Y-80395699I250027J432913D01*
G01*
X192976341Y-90712393D02*
G75*
G03*
X192293370Y-90529357I-433041J-250107D01*
G01*
D10*
X254072929Y-36084043D02*
G75*
G03*
X253523917Y-38133127I750071J-1299057D01*
G01*
D11*
X77261539Y-82920713D02*
G75*
G03*
X77444528Y-83603712I433061J-249987D01*
G01*
D10*
X278027357Y-75944271D02*
X277312886Y-76356771D01*
D11*
X69863087Y-85635153D02*
X63363087Y-96893483D01*
X199949108Y-64689619D02*
G75*
G03*
X199266154Y-64506572I-433008J-249981D01*
G01*
X230555608Y-106601496D02*
X241813938Y-100101496D01*
X105410871Y-62164585D02*
X98910871Y-73422915D01*
X114887882Y-133049920D02*
G75*
G03*
X114204867Y-133232937I-249982J-433080D01*
G01*
X74919518Y-87977157D02*
G75*
G03*
X74236515Y-88160153I-250018J-432943D01*
G01*
X79388087Y-69137369D02*
X72888087Y-80395699D01*
X46182312Y-87551458D02*
G75*
G03*
X46865303Y-87368483I249988J433058D01*
G01*
X197349811Y-88187369D02*
X203849811Y-99445699D01*
D10*
X165894907Y-79836547D02*
G75*
G03*
X169071076Y-78986318I2093J6349847D01*
G01*
X32415613Y-76352686D02*
G75*
G03*
X34464678Y-75803601I749987J1299086D01*
G01*
X29026169Y-80573375D02*
X33233892Y-82994376D01*
D11*
X171510040Y-80531571D02*
G75*
G03*
X171327028Y-81214585I250060J-433029D01*
G01*
X100942298Y-81004380D02*
G75*
G03*
X100259299Y-81187369I-249998J-433020D01*
G01*
X84234347Y-108943511D02*
G75*
G03*
X84417312Y-109626496I433053J-249989D01*
G01*
X202501314Y-107210193D02*
G75*
G03*
X201818370Y-107027141I-433014J-250007D01*
G01*
X121908691Y-71689606D02*
G75*
G03*
X121725642Y-71006572I-432991J250006D01*
G01*
X119782067Y-85472906D02*
G75*
G03*
X119965096Y-86155928I433033J-249994D01*
G01*
D10*
X31701181Y-75940118D02*
G75*
G03*
X29996966Y-75607012I-1337481J-2316682D01*
G01*
X27885602Y-79264043D02*
G75*
G03*
X29026169Y-80573375I2478098J1007243D01*
G01*
D11*
X189904188Y-151491299D02*
G75*
G03*
X190587256Y-151674279I433012J249999D01*
G01*
X246370362Y-96893493D02*
G75*
G03*
X247053392Y-97076496I433038J250093D01*
G01*
X243818101Y-54372951D02*
G75*
G03*
X244501176Y-54555927I432999J249951D01*
G01*
X182658895Y-141817965D02*
G75*
G03*
X181975886Y-141634951I-432995J-249935D01*
G01*
X41240947Y-69110153D02*
X34740947Y-80368483D01*
X84417312Y-109626496D02*
X95675642Y-116126496D01*
X105410902Y-62164603D02*
G75*
G03*
X105227858Y-61481572I-433002J250003D01*
G01*
X93969528Y-54981572D02*
X105227858Y-61481572D01*
X72415355Y-43114615D02*
G75*
G03*
X72232290Y-42431572I-432955J250015D01*
G01*
X211505608Y-73605928D02*
X222763938Y-67105928D01*
X195007824Y-83130928D02*
X206266154Y-76630928D01*
M02*
